<!-- Generated by IcoMoon.io -->
<svg version="1.1" xmlns="http://www.w3.org/2000/svg" width="24" height="24" viewBox="0 0 24 24">
<title>add-garage</title>
<path fill="#868588" d="M2 20.124c0 1.016 0.808 1.827 1.81 1.827h16.38c0.997 0 1.81-0.818 1.81-1.827v-10.9c0-0.218-0.192-0.599-0.369-0.732l-7.995-5.996c-0.881-0.661-2.391-0.661-3.272 0l-7.995 5.996c-0.177 0.133-0.369 0.516-0.369 0.732v10.9zM0.806 7.341l8.794-6.596c1.325-0.994 3.475-0.993 4.799 0l8.794 6.596c0.445 0.334 0.806 1.049 0.806 1.605v11.99c0 1.662-1.342 3.009-2.991 3.009h-18.018c-1.652 0-2.991-1.337-2.991-3.009v-11.99c0-0.553 0.359-1.27 0.806-1.605zM9 14h6c0.552 0 1-0.448 1-1s-0.448-1-1-1h-6c-0.552 0-1 0.448-1 1s0.448 1 1 1zM11 10v6c0 0.552 0.448 1 1 1s1-0.448 1-1v-6c0-0.552-0.448-1-1-1s-1 0.448-1 1z"></path>
</svg>
