<!-- Generated by IcoMoon.io -->
<svg version="1.1" xmlns="http://www.w3.org/2000/svg" width="1024" height="1024" viewBox="0 0 1024 1024">
<title></title>
<g id="icomoon-ignore">
</g>
<path fill="#868588" d="M110.626 834.817c-18.223 18.223-18.75 46.962-1.438 64.273s46.022 16.813 64.273-1.438l721.201-727.181c18.223-18.223 18.75-46.962 1.438-64.273s-46.022-16.813-64.273 1.438l-721.201 727.181zM963.42 41.867c54.531 54.531 54.737 142.739 0 197.476l-724.077 724.077c-54.904 54.904-143.055 54.42-197.476 0-54.531-54.531-54.737-142.739 0-197.476l724.077-724.077c54.904-54.904 143.055-54.42 197.476 0zM815.314 881.139c18.254 18.254 47.69 18.135 65.825 0s18.283-47.542 0-65.825l-707.621-707.621c-18.254-18.254-47.69-18.135-65.825 0s-18.283 47.542 0 65.825l707.621 707.621zM41.867 41.867c54.531-54.531 142.739-54.737 197.476 0l724.077 724.077c54.904 54.904 54.42 143.055 0 197.476-54.531 54.531-142.739 54.737-197.476 0l-724.077-724.077c-54.904-54.904-54.42-143.055 0-197.476z"></path>
</svg>
