<?xml version="1.0" encoding="UTF-8"?>
<svg width="24px" height="24px" viewBox="0 0 24 24" version="1.1" xmlns="http://www.w3.org/2000/svg" xmlns:xlink="http://www.w3.org/1999/xlink">
    <!-- Generator: Sketch 43.2 (39069) - http://www.bohemiancoding.com/sketch -->
    <title>Combined Shape</title>
    <desc>Created with Sketch.</desc>
    <defs></defs>
    <g id="01-ppal" stroke="none" stroke-width="1" fill="none" fill-rule="evenodd">
        <g id="01-00-resultados" transform="translate(-216.000000, -368.000000)" fill-rule="nonzero" fill="#868588">
            <g id="anuncio-2" transform="translate(32.000000, 120.000000)">
                <path d="M186,268.123619 C186,269.139676 186.807782,269.950416 187.810082,269.950416 L204.189918,269.950416 C205.186915,269.950416 206,269.132827 206,268.123619 L206,257.223936 C206,257.006257 205.808157,256.624716 205.630921,256.491789 L197.635944,250.495556 C196.755082,249.83491 195.245172,249.834719 194.364056,250.495556 L186.369079,256.491789 C186.191961,256.624628 186,257.007326 186,257.223936 L186,268.123619 Z M184.805987,255.340968 L193.600462,248.745112 C194.92569,247.75119 197.075481,247.752069 198.399538,248.745112 L207.194013,255.340968 C207.639147,255.674819 208,256.390089 208,256.94633 L208,268.935981 C208,270.598069 206.658229,271.945458 205.00891,271.945458 L186.99109,271.945458 C185.339157,271.945458 184,270.608827 184,268.935981 L184,256.94633 C184,256.393564 184.359136,255.676106 184.805987,255.340968 Z M193,262 L199,262 C199.552285,262 200,261.552285 200,261 C200,260.447715 199.552285,260 199,260 L193,260 C192.447715,260 192,260.447715 192,261 C192,261.552285 192.447715,262 193,262 Z M195,258 L195,264 C195,264.552285 195.447715,265 196,265 C196.552285,265 197,264.552285 197,264 L197,258 C197,257.447715 196.552285,257 196,257 C195.447715,257 195,257.447715 195,258 Z" id="Combined-Shape"></path>
            </g>
        </g>
    </g>
</svg>