<?xml version="1.0" encoding="UTF-8"?>
<svg width="24px" height="24px" viewBox="0 0 24 24" version="1.1" xmlns="http://www.w3.org/2000/svg" xmlns:xlink="http://www.w3.org/1999/xlink">
    <!-- Generator: Sketch 42 (36781) - http://www.bohemiancoding.com/sketch -->
    <title>garaje</title>
    <desc>Created with Sketch.</desc>
    <defs></defs>
    <g id="iconos" stroke="none" stroke-width="1" fill="none" fill-rule="evenodd">
        <g id="garage" fill="#01CBF5">
            <path d="M2,20.1236187 C2,21.139676 2.80778158,21.9504165 3.8100822,21.9504165 L20.1899178,21.9504165 C21.1869152,21.9504165 22,21.132827 22,20.1236187 L22,9.22393617 C22,9.0062567 21.8081572,8.62471617 21.6309207,8.49178886 L13.6359436,2.49555602 C12.7550824,1.83491007 11.2451721,1.83471926 10.3640564,2.49555602 L2.36907925,8.49178886 C2.19196093,8.62462761 2,9.00732582 2,9.22393617 L2,20.1236187 Z M0.805987179,7.34096775 L9.60046202,0.745111619 C10.9256903,-0.248809556 13.0754806,-0.247931426 14.399538,0.745111619 L23.1940128,7.34096775 C23.6391472,7.67481857 24,8.39008899 24,8.94632979 L24,20.9359805 C24,22.5980691 22.6582294,23.9454581 21.0089096,23.9454581 L2.99109042,23.9454581 C1.33915679,23.9454581 0,22.6088271 0,20.9359805 L0,8.94632979 C0,8.39356364 0.359136164,7.67610601 0.805987179,7.34096775 Z M10.25,12.9454581 L13.75,12.9454581 L14,12.9454581 L14,10.9454581 L13.75,10.9454581 L10.25,10.9454581 L10,10.9454581 L10,12.9454581 L10.25,12.9454581 M10.25,16.9454581 L13.75,16.9454581 L14,16.9454581 L14,14.9454581 L13.75,14.9454581 L10.25,14.9454581 L10,14.9454581 L10,16.9454581 L10.25,16.9454581" id="garaje"></path>
        </g>
    </g>
</svg>