<!-- Generated by IcoMoon.io -->
<svg version="1.1" xmlns="http://www.w3.org/2000/svg" width="32" height="32" viewBox="0 0 32 32">
<title>google-plus</title>
<path d="M11.101 14.555c-0.004 1.012 0 2.025 0.004 3.037 1.697 0.055 3.398 0.030 5.095 0.055-0.749 3.764-5.87 4.985-8.579 2.526-2.786-2.156-2.654-6.886 0.242-8.889 2.025-1.616 4.904-1.216 6.929 0.183 0.795-0.736 1.54-1.523 2.258-2.339-1.684-1.344-3.751-2.301-5.95-2.199-4.589-0.153-8.809 3.866-8.885 8.456-0.293 3.751 2.173 7.43 5.657 8.758 3.471 1.336 7.92 0.425 10.136-2.692 1.463-1.969 1.778-4.504 1.608-6.886-2.841-0.021-5.678-0.017-8.515-0.009z"></path>
<path d="M27.697 14.542c-0.009-0.846-0.013-1.697-0.017-2.543-0.846 0-1.689 0-2.531 0-0.009 0.846-0.017 1.693-0.021 2.543-0.851 0.004-1.697 0.009-2.543 0.017 0 0.846 0 1.689 0 2.531 0.846 0.009 1.697 0.017 2.543 0.026 0.009 0.846 0.009 1.693 0.017 2.539 0.846 0 1.689 0 2.535 0 0.004-0.846 0.008-1.693 0.017-2.543 0.851-0.009 1.697-0.013 2.543-0.021 0-0.842 0-1.689 0-2.531-0.846-0.009-1.697-0.009-2.543-0.017z"></path>
</svg>
