<?xml version="1.0" encoding="UTF-8"?>
<svg width="24px" height="24px" viewBox="0 0 24 24" version="1.1" xmlns="http://www.w3.org/2000/svg" xmlns:xlink="http://www.w3.org/1999/xlink">
    <!-- Generator: Sketch 42 (36781) - http://www.bohemiancoding.com/sketch -->
    <title>lupa</title>
    <desc>Created with Sketch.</desc>
    <defs></defs>
    <g id="iconos" stroke="none" stroke-width="1" fill="none" fill-rule="evenodd">
        <g id="lupa" fill="#FFB601" fill-rule="nonzero">
            <path d="M6.89374649,15.7139671 L2.28869966,20.319014 C1.90263999,20.7050736 1.90321894,21.3376654 2.29374038,21.7281868 C2.68370117,22.1181476 3.31699414,22.1191466 3.70291322,21.7332275 L8.30796005,17.1281807 L6.89374649,15.7139671 Z M11.1363872,17.1281807 L5.11712678,23.1474411 C3.94833782,24.31623 2.04871578,24.3115893 0.87952682,23.1424004 C-0.292046055,21.9708275 -0.292621545,20.071908 0.874486097,18.9048004 L6.89374649,12.88554 L11.1363872,17.1281807 Z M22.0082065,9.5 C22.0082065,5.35786438 18.6503421,2 14.5082065,2 C10.3660709,2 7.00820648,5.35786438 7.00820648,9.5 C7.00820648,13.6421356 10.3660709,17 14.5082065,17 C18.6503421,17 22.0082065,13.6421356 22.0082065,9.5 Z M5.00820648,9.5 C5.00820648,4.25329488 9.26150135,0 14.5082065,0 C19.7549116,0 24.0082065,4.25329488 24.0082065,9.5 C24.0082065,14.7467051 19.7549116,19 14.5082065,19 C9.26150135,19 5.00820648,14.7467051 5.00820648,9.5 Z"></path>
        </g>
    </g>
</svg>