<!-- Generated by IcoMoon.io -->
<svg version="1.1" xmlns="http://www.w3.org/2000/svg" width="24" height="24" viewBox="0 0 24 24">
<title>mail</title>
<path fill="#868588" d="M20.7 1.049l2.3 0.003-7.951 8.566c-1.914 1.9-4.438 1.835-6.306-0.16l-7.743-8.458 2.3 0.003 6.747 7.421c1.113 1.113 2.448 1.246 3.605 0.045l7.047-7.42zM2.991 0h18.018c1.652 0 2.991 1.342 2.991 2.991v18.018c0 1.652-1.342 2.991-2.991 2.991h-18.018c-1.652 0-2.991-1.342-2.991-2.991v-18.018c0-1.652 1.342-2.991 2.991-2.991zM2 20.19c0 0.998 0.811 1.81 1.81 1.81h16.38c0.998 0 1.81-0.811 1.81-1.81v-16.38c0-0.998-0.811-1.81-1.81-1.81h-16.38c-0.998 0-1.81 0.811-1.81 1.81v16.38z"></path>
</svg>
