<!-- Generated by IcoMoon.io -->
<svg version="1.1" xmlns="http://www.w3.org/2000/svg" width="80" height="80" viewBox="0 0 80 80">
<title>p-80px</title>
<path fill="#0086ff" d="M11.7 63.3h56.6v-6.6h-56.6z"></path>
<path fill="#0086ff" d="M16.7 68.3h6.6v-56.6h-6.6z"></path>
<path fill="#0086ff" d="M0 70h6.7v-60h-6.7z"></path>
<path fill="#0086ff" d="M10 6.7h60v-6.7h-60z"></path>
<path fill="#0086ff" d="M73.3 51.7h6.7v-40h-6.7z"></path>
<path fill="#00cfff" d="M68.3 23.3c-6.3 0-11.7-5.3-11.7-11.7s5.4-11.6 11.7-11.6c6.4 0 11.7 5.3 11.7 11.7s-5.3 11.6-11.7 11.6zM68.3 6.7c-2.7 0-5 2.3-5 5s2.3 5 5 5 5-2.3 5-5-2.3-5-5-5z"></path>
<path fill="#00cfff" d="M68.3 63.3c-6.3 0-11.7-5.3-11.7-11.7s5.4-11.6 11.7-11.6c6.4 0 11.7 5.3 11.7 11.7s-5.3 11.6-11.7 11.6zM68.3 46.7c-2.7 0-5 2.3-5 5s2.3 5 5 5 5-2.3 5-5-2.3-5-5-5z"></path>
<path fill="#00cfff" d="M11.7 80c-6.4 0-11.7-5.3-11.7-11.7 0-6.3 5.3-11.6 11.7-11.6s11.6 5.3 11.6 11.6c0 6.4-5.3 11.7-11.6 11.7zM11.7 63.3c-2.7 0-5 2.3-5 5s2.3 5 5 5 5-2.3 5-5-2.4-5-5-5z"></path>
<path fill="#00cfff" d="M11.7 23.3c-6.4 0-11.7-5.3-11.7-11.6s5.3-11.7 11.7-11.7 11.7 5.3 11.7 11.7-5.4 11.6-11.7 11.6zM11.7 6.7c-2.7 0-5 2.3-5 5s2.3 5 5 5 5-2.3 5-5-2.4-5-5-5z"></path>
</svg>
