<?xml version="1.0" encoding="utf-8"?>
<!-- Generator: Adobe Illustrator 21.0.2, SVG Export Plug-In . SVG Version: 6.00 Build 0)  -->
<svg version="1.1" id="p" xmlns="http://www.w3.org/2000/svg" xmlns:xlink="http://www.w3.org/1999/xlink" x="0px" y="0px"
	 viewBox="0 0 24 24" style="enable-background:new 0 0 24 24;" xml:space="preserve">
<style type="text/css">
	.st0{fill:#0086FF;}
	.st1{fill:#00CFFF;}
</style>
<g id="cintas_1_">
	<polygon id="cintas-P-1" class="st0" points="3.5,19 20.5,19 20.5,17 3.5,17 	"/>
	<polygon id="cintas-P-2" class="st0" points="5,20.5 7,20.5 7,3.5 5,3.5 	"/>
	<polygon id="cintas-P-3" class="st0" points="0,21 2,21 2,3 0,3 	"/>
	<polygon id="cintas-P-4" class="st0" points="3,2 21,2 21,0 3,0 	"/>
	<polygon id="cintas-P-5" class="st0" points="22,15.5 24,15.5 24,3.5 22,3.5 	"/>
</g>
<g id="nodos">
	<g id="Oval-P-3">
		<g id="path-5_1_">
			<g>
				<path class="st1" d="M20.5,7C18.6,7,17,5.4,17,3.5S18.6,0,20.5,0S24,1.6,24,3.5S22.4,7,20.5,7z M20.5,2C19.7,2,19,2.7,19,3.5
					S19.7,5,20.5,5S22,4.3,22,3.5S21.3,2,20.5,2z"/>
			</g>
		</g>
	</g>
	<g id="Oval-P-4">
		<g id="path-7_1_">
			<g>
				<path class="st1" d="M20.5,19c-1.9,0-3.5-1.6-3.5-3.5c0-1.9,1.6-3.5,3.5-3.5s3.5,1.6,3.5,3.5C24,17.4,22.4,19,20.5,19z M20.5,14
					c-0.8,0-1.5,0.7-1.5,1.5s0.7,1.5,1.5,1.5s1.5-0.7,1.5-1.5S21.3,14,20.5,14z"/>
			</g>
		</g>
	</g>
	<g id="Oval-P-4_1_">
		<g id="path-7_2_">
			<g>
				<path class="st1" d="M3.5,24C1.6,24,0,22.4,0,20.5C0,18.6,1.6,17,3.5,17S7,18.6,7,20.5C7,22.4,5.4,24,3.5,24z M3.5,19
					C2.7,19,2,19.7,2,20.5S2.7,22,3.5,22S5,21.3,5,20.5S4.3,19,3.5,19z"/>
			</g>
		</g>
	</g>
	<g id="Oval-P-4_2_">
		<g id="path-7_3_">
			<g>
				<path class="st1" d="M3.5,7C1.6,7,0,5.4,0,3.5C0,1.6,1.6,0,3.5,0S7,1.6,7,3.5C7,5.4,5.4,7,3.5,7z M3.5,2C2.7,2,2,2.7,2,3.5
					S2.7,5,3.5,5S5,4.3,5,3.5S4.3,2,3.5,2z"/>
			</g>
		</g>
	</g>
</g>
</svg>
