<?xml version="1.0" encoding="UTF-8"?>
<svg width="24px" height="24px" viewBox="0 0 24 24" version="1.1" xmlns="http://www.w3.org/2000/svg" xmlns:xlink="http://www.w3.org/1999/xlink">
    <!-- Generator: Sketch 42 (36781) - http://www.bohemiancoding.com/sketch -->
    <title>mas</title>
    <desc>Created with Sketch.</desc>
    <defs></defs>
    <g id="iconos" stroke="none" stroke-width="1" fill="none" fill-rule="evenodd">
        <g id="add" fill-rule="nonzero" fill="#00FFCB">
            <path d="M11,21 C11,21.5423147 11.4489881,22 12,22 C12.5510122,22 13,21.5432091 13,21 L13,3 C13,2.45768534 12.5510119,2 12,2 C11.4489878,2 11,2.45679087 11,3 L11,21 Z M12,0 C13.6568542,2.83106871e-15 15,1.37095887 15,3 L15,21 C15,22.6342541 13.6534829,24 12,24 C10.3431458,24 9,22.6290411 9,21 L9,3 C9,1.36574592 10.3465171,-2.49800181e-15 12,0 Z M21,13 C21.5423147,13 22,12.5510119 22,12 C22,11.4489878 21.5432091,11 21,11 L3,11 C2.45768534,11 2,11.4489881 2,12 C2,12.5510122 2.45679087,13 3,13 L21,13 Z M0,12 C0,10.3431458 1.37095887,9 3,9 L21,9 C22.6342541,9 24,10.3465171 24,12 C24,13.6568542 22.6290411,15 21,15 L3,15 C1.36574592,15 0,13.6534829 0,12 Z" id="mas"></path>
        </g>
    </g>
</svg>