<!-- Generated by IcoMoon.io -->
<svg version="1.1" xmlns="http://www.w3.org/2000/svg" width="32" height="32" viewBox="0 0 32 32">
<title>p</title>
<path fill="#0086ff" d="M4.667 25.333h22.667v-2.667h-22.667z"></path>
<path fill="#0086ff" d="M6.667 27.333h2.667v-22.667h-2.667z"></path>
<path fill="#0086ff" d="M0 28h2.667v-24h-2.667z"></path>
<path fill="#0086ff" d="M4 2.667h24v-2.667h-24z"></path>
<path fill="#0086ff" d="M29.333 20.667h2.667v-16h-2.667z"></path>
<path fill="#00cfff" d="M27.333 9.333c-2.533 0-4.667-2.133-4.667-4.667s2.133-4.667 4.667-4.667 4.667 2.133 4.667 4.667-2.133 4.667-4.667 4.667zM27.333 2.667c-1.067 0-2 0.933-2 2s0.933 2 2 2 2-0.933 2-2-0.933-2-2-2z"></path>
<path fill="#00cfff" d="M27.333 25.333c-2.533 0-4.667-2.133-4.667-4.667s2.133-4.667 4.667-4.667 4.667 2.133 4.667 4.667c0 2.533-2.133 4.667-4.667 4.667zM27.333 18.667c-1.067 0-2 0.933-2 2s0.933 2 2 2 2-0.933 2-2-0.933-2-2-2z"></path>
<path fill="#00cfff" d="M4.667 32c-2.533 0-4.667-2.133-4.667-4.667s2.133-4.667 4.667-4.667 4.667 2.133 4.667 4.667c0 2.533-2.133 4.667-4.667 4.667zM4.667 25.333c-1.067 0-2 0.933-2 2s0.933 2 2 2 2-0.933 2-2-0.933-2-2-2z"></path>
<path fill="#00cfff" d="M4.667 9.333c-2.533 0-4.667-2.133-4.667-4.667s2.133-4.667 4.667-4.667 4.667 2.133 4.667 4.667c0 2.533-2.133 4.667-4.667 4.667zM4.667 2.667c-1.067 0-2 0.933-2 2s0.933 2 2 2 2-0.933 2-2-0.933-2-2-2z"></path>
</svg>
